HIERARCHY
ROOT Hips
{
	OFFSET 0.00000 0.00000 0.00000
	CHANNELS 6 Xposition Yposition Zposition Zrotation Yrotation Xrotation 
	JOINT RightUpLegDummy
	{
		OFFSET 0 0 0
		CHANNELS 3 Zrotation Yrotation Xrotation
		JOINT RightUpLeg
		{
			OFFSET -3.52197 -3.41223 0.04002
			CHANNELS 3 Zrotation Yrotation Xrotation
			JOINT RightLeg
			{
				OFFSET 0.00006 -17.42390 1.60435
				CHANNELS 3 Zrotation Yrotation Xrotation
				JOINT RightFoot
				{
					OFFSET 0.06153 -16.50078 -1.63901
					CHANNELS 3 Zrotation Yrotation Xrotation
					JOINT RightToes
					{
						OFFSET 0.00298 -1.73825 3.34613
						CHANNELS 3 Zrotation Yrotation Xrotation
						End Site
						{
							OFFSET 0.00480 -0.05416 3.85043
						}
					}
				}
			}
		}
	}
	JOINT SpineDummy
	{
		OFFSET 0 0 0
		CHANNELS 3 Zrotation Yrotation Xrotation
		JOINT Spine
		{
			OFFSET 0.00000 4.68130 0.00000
			CHANNELS 3 Zrotation Yrotation Xrotation
			JOINT Spine1
			{
				OFFSET -0.00000 10.10138 0.05002
				CHANNELS 3 Zrotation Yrotation Xrotation
				JOINT HEadDummy
				{
					OFFSET 0 0 0
					CHANNELS 3 Zrotation Yrotation Xrotation
					JOINT Head
					{
						OFFSET -0.00000 3.43865 0.00438
						CHANNELS 3 Zrotation Yrotation Xrotation
						End Site
						{
							OFFSET -0.11417 5.02924 0.98962
						}
					}
				}
				JOINT LeftShoulder1Dummy
				{
					OFFSET 0 0 0
					CHANNELS 3 Zrotation Yrotation Xrotation
					JOINT LeftShoulder1
					{
						OFFSET 3.53937 -0.14262 -0.08662
						CHANNELS 3 Zrotation Yrotation Xrotation
						JOINT LeftArm
						{
							OFFSET 4.04833 -0.00133 0.12681
							CHANNELS 3 Zrotation Yrotation Xrotation
							JOINT LeftForeArm
							{
								OFFSET 10.33880 -0.01036 -0.55515
								CHANNELS 3 Zrotation Yrotation Xrotation
								JOINT LeftHand
								{
									OFFSET 8.69677 0.07543 0.40060
									CHANNELS 3 Zrotation Yrotation Xrotation
									End Site
									{
										OFFSET 5.28377 -0.21905 0.59205
									}
								}
							}
						}
					}
				}
				JOINT RightShoulderDummy
				{
					OFFSET 0 0 0
					CHANNELS 3 Zrotation Yrotation Xrotation
					JOINT RightShoulder
					{
						OFFSET -3.53937 -0.14262 -0.08660
						CHANNELS 3 Zrotation Yrotation Xrotation
						JOINT RightArm
						{
							OFFSET -4.04833 -0.00133 0.12683
							CHANNELS 3 Zrotation Yrotation Xrotation
							JOINT RightForeArm
							{
								OFFSET -10.37987 -0.01039 -0.55511
								CHANNELS 3 Zrotation Yrotation Xrotation
								JOINT RightHand
								{
									OFFSET -8.67398 0.07538 0.40058
									CHANNELS 3 Zrotation Yrotation Xrotation
									End Site
									{
										OFFSET -5.24810 -0.21916 0.59204
									}
								}
							}
						}
					}
				}
			}
		}
	}
	JOINT LeftUpLegDummy
	{
		OFFSET 0 0 0
		CHANNELS 3 Zrotation Yrotation Xrotation
		JOINT LeftUpLeg
		{
			OFFSET 3.52197 -3.41223 0.04002
			CHANNELS 3 Zrotation Yrotation Xrotation
			JOINT LeftLeg
			{
				OFFSET -0.00012 -17.42399 1.60337
				CHANNELS 3 Zrotation Yrotation Xrotation
				JOINT LeftFoot
				{
					OFFSET -0.09972 -16.50070 -1.63802
					CHANNELS 3 Zrotation Yrotation Xrotation
					JOINT LeftToes
					{
						OFFSET -0.01575 -1.73823 3.34611
						CHANNELS 3 Zrotation Yrotation Xrotation
						End Site
						{
							OFFSET 0.03150 -0.01868 3.85031
						}
					}
				}
			}
		}
	}
}
MOTION
Frames: 14
Frame Time: 0.033333
-48.5387 39.8269 80.9946 -178.8320 6.7315 177.7440 0.0000 0.0000 0.0000 3.3678 0.5046 -0.2592 -1.1066 1.0832 5.4694 -2.8083 0.1841 -2.9910 0.0000 -0.0000 -0.0000 0.0000 0.0000 0.0000 -0.4875 0.0148 0.0222 3.5484 -0.7018 2.2152 -0.0000 0.0000 -0.0000 0.9838 0.2093 -2.0495 -0.0000 0.0000 -0.0000 -33.7034 -3.3239 2.7122 -43.8207 -16.4659 -20.6632 -6.2538 4.4527 68.7867 46.6499 -0.9533 -2.6680 -0.0000 0.0000 -0.0000 35.4572 5.2647 3.6380 40.2092 5.6887 -16.3126 10.9246 0.0397 22.7875 -11.8052 1.6235 -0.6895 0.0000 0.0000 0.0000 2.0249 2.5665 0.1008 0.6956 4.6043 7.7185 1.5301 -0.0380 -5.8441 0.0000 0.0000 -0.0000
-48.5450 39.8305 80.9958 -178.9590 6.7433 177.6680 0.0000 0.0000 0.0000 3.1777 0.3228 -0.2415 -1.0037 1.2568 5.5584 -2.8922 0.1897 -3.0480 0.0000 -0.0000 -0.0000 0.0000 0.0000 0.0000 -0.4483 0.0247 0.0951 3.3073 -0.6422 2.1726 -0.0000 0.0000 -0.0000 1.0758 -0.0423 -2.0907 -0.0000 0.0000 -0.0000 -33.2949 -3.3172 2.6815 -44.2635 -16.5753 -20.7687 -6.1419 4.4554 68.7445 46.5298 -0.9678 -2.6657 -0.0000 0.0000 -0.0000 35.6769 5.3020 3.6732 40.0222 5.6164 -16.3902 10.9091 0.0356 22.7445 -11.5569 1.8437 -0.6995 0.0000 0.0000 0.0000 1.7996 2.3847 0.2128 0.8326 4.7757 7.5892 1.8180 -0.0565 -5.7875 0.0000 0.0000 -0.0000
-48.5607 39.8425 80.9850 -179.2930 6.5245 177.2190 0.0000 0.0000 0.0000 2.6987 -0.1846 0.1639 -0.8160 1.5162 5.7079 -2.9431 0.1935 -3.2209 0.0000 -0.0000 -0.0000 0.0000 0.0000 0.0000 -0.5875 -0.1363 0.4838 3.1375 -0.7710 2.3069 -0.0000 0.0000 -0.0000 1.0125 -0.4387 -2.6091 -0.0000 0.0000 -0.0000 -33.0679 -3.1956 2.6183 -44.6108 -16.7392 -20.7285 -6.1391 4.4695 68.3920 46.4580 -0.9722 -2.6629 -0.0000 0.0000 -0.0000 35.5645 5.2911 3.6586 40.0604 5.8015 -16.4746 10.8564 -0.1104 22.9353 -11.5112 1.9188 -0.7017 0.0000 0.0000 0.0000 1.2437 1.9345 0.8553 1.1154 4.9782 7.1162 2.2353 -0.0834 -5.5919 0.0000 0.0000 -0.0000
-48.5322 39.8437 80.9875 -179.2640 6.3353 177.2100 0.0000 0.0000 0.0000 2.7882 -0.1412 0.2289 -0.8778 1.2857 5.6352 -2.9674 0.1950 -3.2039 0.0000 -0.0000 -0.0000 0.0000 0.0000 0.0000 -0.6375 -0.3034 0.7505 3.4279 -0.9969 2.0845 -0.0000 0.0000 -0.0000 0.7868 -0.4868 -2.9444 -0.0000 0.0000 -0.0000 -33.5543 -3.0327 2.5869 -44.2604 -16.5601 -20.4818 -6.3664 4.4840 67.9771 47.6280 -0.9431 -2.7114 -0.0000 0.0000 -0.0000 34.9394 5.2001 3.5653 40.4906 5.9858 -16.4764 10.8181 -0.3915 23.3891 -11.8727 1.5334 -0.6865 0.0000 0.0000 0.0000 1.3003 1.9355 0.7949 1.1185 4.7767 7.2006 2.4263 -0.0956 -5.6235 0.0000 0.0000 -0.0000
-48.5074 39.8427 80.9736 -179.2520 6.4741 177.2450 0.0000 0.0000 0.0000 2.8732 -0.0387 0.2142 -0.9233 1.3265 5.6330 -3.0674 0.2014 -3.2046 0.0000 -0.0000 -0.0000 0.0000 0.0000 0.0000 -0.5479 -0.2604 1.2029 3.5728 -0.9658 1.3780 -0.0000 0.0000 -0.0000 0.6418 -0.1468 -2.7819 -0.0000 0.0000 -0.0000 -34.2462 -2.9829 2.6126 -43.6525 -16.1080 -20.2832 -6.5736 4.4451 68.8897 40.4982 -1.8215 -2.6902 -0.0000 0.0000 -0.0000 34.3978 5.1138 3.4825 40.8783 5.7957 -16.4769 10.8235 -0.6617 23.7834 -12.1138 1.2108 -0.6760 0.0000 0.0000 0.0000 1.3852 2.0144 0.7978 1.0781 4.8402 7.2215 2.3286 -0.0894 -5.6621 0.0000 0.0000 -0.0000
-48.4896 39.8400 80.9600 -179.2660 6.6081 177.2350 0.0000 0.0000 0.0000 2.9036 0.0051 0.2192 -0.9354 1.4158 5.6807 -3.1263 0.2053 -3.2472 0.0000 -0.0000 -0.0000 0.0000 0.0000 0.0000 -0.3340 -0.1035 2.1366 3.3983 -0.7353 -0.0708 -0.0000 0.0000 -0.0000 0.7552 -0.0571 -2.1655 -0.0000 0.0000 -0.0000 -34.4693 -3.0106 2.6384 -43.4918 -15.5088 -20.2397 -6.5561 4.2940 72.6235 11.4826 -5.5845 -1.0024 -0.0000 0.0000 -0.0000 34.4536 5.1023 3.4828 40.8618 4.8910 -16.5169 10.8645 -0.5589 23.8868 -11.8588 1.4507 -0.6864 0.0000 0.0000 0.0000 1.3923 2.0118 0.8357 1.1247 4.9683 7.2602 2.1766 -0.0796 -5.7118 0.0000 0.0000 -0.0000
-48.4673 39.8366 80.9692 -179.3010 6.2755 177.1270 0.0000 0.0000 0.0000 2.8776 -0.0871 0.3185 -0.9374 1.1773 5.7326 -3.0572 0.2011 -3.3167 0.0000 -0.0000 -0.0000 0.0000 0.0000 0.0000 -0.3678 -0.1690 2.4272 3.3591 -0.7876 -0.3122 -0.0000 0.0000 -0.0000 0.8961 -0.4004 -2.1517 -0.0000 0.0000 -0.0000 -34.2297 -3.0491 2.6381 -43.8020 -15.6113 -20.2541 -6.4724 4.3030 72.4179 14.2119 -4.6200 -1.1909 -0.0000 0.0000 -0.0000 34.8318 5.1624 3.5404 40.4679 4.5593 -16.5800 10.8633 -0.4348 23.6568 -11.4335 1.8580 -0.6987 0.0000 0.0000 0.0000 1.3044 1.8520 0.8374 1.2655 4.7714 7.3718 2.1131 -0.0755 -5.7290 0.0000 0.0000 -0.0000
-48.4315 39.8360 80.9928 -179.3610 5.6971 177.0520 0.0000 0.0000 0.0000 2.8172 -0.2436 0.3589 -0.9184 0.7575 5.8083 -3.0242 0.1982 -3.3811 0.0000 -0.0000 -0.0000 0.0000 0.0000 0.0000 -0.6208 -0.3754 2.6927 3.5361 -1.0208 -0.4574 -0.0000 0.0000 -0.0000 0.9362 -0.7549 -2.2695 -0.0000 0.0000 -0.0000 -34.0052 -3.0529 2.6247 -44.0830 -15.7519 -20.1079 -6.5010 4.3070 72.3164 14.4015 -4.3068 -1.1711 -0.0000 0.0000 -0.0000 35.0377 5.1973 3.5728 40.2068 4.3992 -16.5520 10.8722 -0.2755 23.3712 -11.3334 1.8492 -0.6914 0.0000 0.0000 0.0000 1.2103 1.6726 0.7482 1.3587 4.3566 7.4753 2.0998 -0.0747 -5.6851 0.0000 0.0000 -0.0000
-48.3897 39.8367 80.9976 -179.4560 5.4337 177.0640 0.0000 0.0000 0.0000 2.7383 -0.3660 0.2988 -0.8656 0.5979 5.9122 -3.1971 0.2086 -3.4413 0.0000 -0.0000 -0.0000 0.0000 0.0000 0.0000 -0.8123 -0.4670 2.5462 3.6359 -1.1351 -0.1976 -0.0000 0.0000 -0.0000 0.9691 -0.6447 -2.3058 -0.0000 0.0000 -0.0000 -33.8567 -3.0983 2.6329 -44.3708 -15.9038 -19.4181 -6.8585 4.3175 71.9895 14.9143 -3.1497 -1.0701 -0.0000 0.0000 -0.0000 34.9638 5.1853 3.5614 40.2039 4.5769 -16.6004 10.8516 -0.4280 23.3686 -11.5193 1.6013 -0.6804 0.0000 0.0000 0.0000 1.1599 1.6144 0.7095 1.3391 4.1537 7.4315 2.0823 -0.0735 -5.6136 0.0000 0.0000 -0.0000
-48.3523 39.8377 80.9757 -179.5430 5.4884 177.0270 0.0000 0.0000 0.0000 2.6950 -0.4203 0.3487 -0.8370 0.6683 5.9533 -3.4398 0.2234 -3.4982 0.0000 -0.0000 -0.0000 0.0000 0.0000 0.0000 -0.7874 -0.4058 2.2406 3.5111 -1.0622 0.2515 -0.0000 0.0000 -0.0000 1.0361 -0.3708 -2.3129 -0.0000 0.0000 -0.0000 -33.6224 -3.1613 2.6423 -44.9085 -16.0005 -18.2597 -7.7150 4.4184 69.2407 15.9263 -1.2676 -0.9051 -0.0000 0.0000 -0.0000 34.8233 5.1507 3.5348 40.3235 4.8383 -16.8058 10.7757 -0.7409 23.7222 -11.5957 1.6084 -0.6856 0.0000 0.0000 0.0000 1.1489 1.6443 0.8748 1.2881 4.1791 7.2596 2.0497 -0.0714 -5.5696 0.0000 0.0000 -0.0000
-48.3155 39.8381 80.9548 -179.5630 5.4690 176.9120 0.0000 0.0000 0.0000 2.7425 -0.4184 0.5486 -0.8706 0.6176 5.8833 -3.5306 0.2284 -3.5256 0.0000 -0.0000 -0.0000 0.0000 0.0000 0.0000 -0.6506 -0.3904 2.3060 3.3505 -1.0223 0.2964 -0.0000 0.0000 -0.0000 1.1293 -0.2982 -2.3411 -0.0000 0.0000 -0.0000 -33.4113 -3.1334 2.6171 -45.3145 -15.9502 -17.7420 -8.7221 4.6742 62.4380 16.3218 -1.1994 -0.9170 -0.0000 0.0000 -0.0000 34.7832 5.1271 3.5217 40.3994 4.8363 -16.9113 10.7340 -0.7790 23.9972 -11.4230 1.7980 -0.6924 0.0000 0.0000 0.0000 1.1976 1.6857 1.0952 1.2573 4.1043 7.1365 1.9932 -0.0678 -5.5653 0.0000 0.0000 -0.0000
-48.2705 39.8373 80.9511 -179.5320 5.3882 176.8960 0.0000 0.0000 0.0000 2.8487 -0.3817 0.6221 -0.8880 0.4928 5.8131 -3.5241 0.2270 -3.5194 0.0000 -0.0000 -0.0000 0.0000 0.0000 0.0000 -0.5314 -0.4434 2.6340 3.3289 -1.0655 -0.1198 -0.0000 0.0000 -0.0000 1.0837 -0.3361 -2.3709 -0.0000 0.0000 -0.0000 -33.5141 -3.0301 2.5832 -45.1958 -15.7580 -17.8882 -8.7636 4.7024 61.6292 16.3355 -1.1511 -0.9113 -0.0000 0.0000 -0.0000 34.8530 5.1377 3.5321 40.3156 4.5755 -16.7188 10.8102 -0.4944 23.8170 -11.2542 1.8100 -0.6830 0.0000 0.0000 0.0000 1.3298 1.7736 1.1076 1.1939 3.9201 7.1558 1.9240 -0.0648 -5.5847 0.0000 0.0000 -0.0000
-48.2194 39.8337 80.9480 -179.5210 5.5337 177.0340 0.0000 0.0000 0.0000 2.9269 -0.3346 0.4551 -0.8239 0.5885 5.8571 -3.5963 0.2307 -3.5258 0.0000 -0.0000 -0.0000 0.0000 0.0000 0.0000 -0.4155 -0.3934 2.7231 3.3446 -1.0107 -0.4503 -0.0000 0.0000 -0.0000 0.9459 -0.2561 -2.3621 -0.0000 0.0000 -0.0000 -33.8627 -2.9935 2.5916 -44.7534 -15.5586 -18.0064 -8.8911 4.7331 60.7462 16.2133 -1.2711 -0.9201 -0.0000 0.0000 -0.0000 35.0187 5.1833 3.5654 40.0426 4.3430 -16.4719 10.9144 -0.2826 23.5019 -11.4306 1.6538 -0.6798 0.0000 0.0000 0.0000 1.4895 1.9308 0.9637 1.0786 3.9047 7.2119 1.8810 -0.0635 -5.6147 0.0000 0.0000 -0.0000
-48.1710 39.8310 80.9344 -179.5630 5.7706 177.1440 0.0000 0.0000 0.0000 2.9489 -0.3039 0.2962 -0.7550 0.7868 5.9605 -3.7182 0.2378 -3.5683 0.0000 -0.0000 -0.0000 0.0000 0.0000 0.0000 -0.2819 -0.2524 2.4893 3.2378 -0.8535 -0.3199 -0.0000 0.0000 -0.0000 0.9150 -0.1595 -2.4042 -0.0000 0.0000 -0.0000 -34.0085 -3.0784 2.6351 -44.5019 -15.5106 -18.0509 -8.9697 4.7488 60.2873 15.9122 -1.7572 -0.9663 -0.0000 0.0000 -0.0000 35.2033 5.2279 3.6001 39.7757 4.3762 -16.5121 10.9038 -0.4005 23.5534 -12.0099 1.4803 -0.6985 0.0000 0.0000 0.0000 1.5758 2.0477 0.9189 0.9928 4.0230 7.1795 1.8657 -0.0639 -5.6290 0.0000 0.0000 -0.0000
